<?xml version="1.0" encoding="utf-8"?>
<!-- Generator: Adobe Illustrator 16.0.0, SVG Export Plug-In . SVG Version: 6.00 Build 0)  -->
<!DOCTYPE svg PUBLIC "-//W3C//DTD SVG 1.1//EN" "http://www.w3.org/Graphics/SVG/1.1/DTD/svg11.dtd">
<svg version="1.1" id="Capa_1" xmlns="http://www.w3.org/2000/svg" xmlns:xlink="http://www.w3.org/1999/xlink" x="0px" y="0px"
	 width="294.697px" height="69.932px" viewBox="0 0 294.697 69.932" enable-background="new 0 0 294.697 69.932"
	 xml:space="preserve">
<rect x="88.684" y="0.175" fill="none" width="216.5" height="87.003"/>
<text transform="matrix(1 0 0 1 88.6841 69.2637)" fill="#FFFFFF" font-family="'Aileron-Thin'" font-size="94">lot.sh</text>
<path fill-rule="evenodd" clip-rule="evenodd" fill="#FFFFFF" d="M79.042,4.398c-4.57-2.691-9.533-4.058-14.792-4.332
	C54.355-0.45,45.152,2.049,36.734,7.11c-14.133,8.496-23.873,20.284-26.686,37.001C9.853,45.272,9.73,46.446,9.56,47.71
	c-0.219-0.115,0.391,4.668,0.574,6.738c0.171,2.023-0.053,2.925-0.9,4.479c-0.998,1.833-2.896,2.38-5.371,2.605
	c-2.042,0.188-3.477,0.004-3.79,0.607c-0.416,0.77,0.969,1.521,3.25,2.839c12.402,7.166,25.018,6.379,37.191-1.221
	c1.025-0.641,2.194-1.157,3.366-1.442c8.936-2.177,15.573-7.356,20.184-15.243c3.404-5.822,4.096-12.255,4.273-18.815
	c0.128-4.713,1.028-9.231,3.638-13.271c1.557-2.41,3.508-4.241,6.374-5.111c0.998-0.303,2.129-1.25,2.529-2.19
	C81.536,6.144,80.336,5.16,79.042,4.398z M7.58,63.952c0.851-0.53,2.777-1.501,3.738-2.418c1.35-1.289,2.025-2.73,2.553-4.841
	c0.511-2.042,2.769-2.709,4.021-1.233c4.338,5.111,7.935,6.043,17.307,8.021C35.2,63.481,21.349,70.369,7.58,63.952z M20.292,53.894
	c-2.167-2.293-4.586-2.107-7.446-1.012c-0.662-4.736-0.827-9.322,1.195-13.503c1.762-3.642,7.829-4.798,11.541-2.817
	c3.561,1.902,5.703,4.696,6.877,8.529c2.115,6.9,8.231,12.194,12.327,12.916c0.271,0.047,1.227,0.291,2.003,0.371
	C38.599,62.427,26.417,60.378,20.292,53.894z M49.774,56.706c-5.628,0.888-8.316-1.296-12.274-5.416
	c-1.197-1.246-2.715-3.73-3.543-6.123c-0.913-2.635-1.677-4.491-3.221-6.359c-4.171-5.044-12.148-5.88-15.876-3.097
	c1.267-2.578,1.977-4.204,3.081-6.232c3.291-6.045,6.64-7.301,13.2-5.018c5.193,1.808,9.089,5.171,10.963,10.336
	c2.954,8.146,8.387,12.781,17.162,13.243c0.117,0.006,0.782-0.143,0.585,0.477C57.126,52.071,54.39,55.978,49.774,56.706z
	 M61.377,46.091c-0.308,0.502-1.507,0.638-2.292,0.633c-6.695-0.031-12.491-3.986-14.979-10.55
	c-2.269-5.986-5.943-10.574-12.069-12.667c-2.704-0.923-5.684-1.037-8.881-1.576c3.807-3.74,6.482-8.886,12.925-8.591
	c6.503,0.298,11.184,3.487,13.815,9.358c2.153,4.802,5.363,8.296,10.417,9.903c1.524,0.484,3.144,0.673,4.928,1.04
	C65.165,38.2,63.708,42.3,61.377,46.091z M65.586,30.284c-0.071,1.509-0.666,2.029-2.192,1.777
	c-5.066-0.834-8.96-3.336-11.367-7.915c-4.817-9.162-7.068-10.818-17.191-12.268c8.415-7.688,17.25-6.64,22.185,2.734
	c1.738,3.301,4.34,5.556,7.736,7.049c0.611,0.269,1.279,1.259,1.278,1.916C66.034,25.812,65.692,28.045,65.586,30.284z
	 M66.259,20.588c-3.193-0.613-5.773-2.447-7.298-5.308c-2.513-4.718-5.771-8.129-11.272-9.652c-2.571-0.712,0.197-1.566,1.668-1.981
	c4.018-1.135,8.344-1.289,11.205-0.738c1.536,0.296,3.45,1.577,4.713,2.896c1.837,1.917,3.286,3.103,4.913,6.512
	C69.005,14.805,67.688,17.579,66.259,20.588z M72.22,10.233c-0.517,0.274-1.731,0.056-2.113-0.384
	c-1.844-2.115-3.709-5.084-6.976-7.092c5.06,0.271,10.629,1.75,14.523,4.015C75.675,8.063,74.017,9.279,72.22,10.233z"/>
</svg>
